<?xml version="1.0" encoding="UTF-8"?>
<svg id="Capa_1" xmlns="http://www.w3.org/2000/svg" version="1.1" viewBox="0 0 792 612">
  <!-- Generator: Adobe Illustrator 29.0.0, SVG Export Plug-In . SVG Version: 2.1.0 Build 186)  -->
  <defs>
    <style>
      .st0, .st1 {
        fill: #9600b4;
      }

      .st2 {
        fill: #620075;
      }

      .st3 {
        fill: #fff;
      }

      .st4, .st5 {
        fill: #2d0036;
      }

      .st6, .st7 {
        fill: #620075;
      }

      .st5, .st1, .st7 {
        font-family: MyriadPro-Regular, 'Myriad Pro';
        font-size: 16.8px;
      }

      .st8 {
        fill: #f27127;
      }

      .st9 {
        fill: #9600b4;
      }
    </style>
  </defs>
  <g>
    <path class="st0" d="M244.1,221.8v77.3h-20.6v-23.6c-10.6,16.9-28.1,26.1-50.8,26.1-42,0-74-31.4-74-72.8s32-72.8,74-72.8,59.7,19,68.3,45.7h-27.1c-8-13.5-23-22.2-41.2-22.2-27.7,0-48.9,21.2-48.9,49.3s21.2,49.3,48.9,49.3,40.4-14.1,45.5-34.5h-40.6v-21.8h66.5Z"/>
    <path class="st0" d="M658,234.1c0,40.2-30.6,70.3-71.6,70.3h-54.6v-140.7h54.6c41,0,71.6,30.2,71.6,70.3ZM633.1,234.1c0-27.1-20.2-47.5-47.1-47.5h-30v95h30c26.9,0,47.1-20.4,47.1-47.5Z"/>
    <g>
      <path class="st4" d="M172.4,424.6h-34.4v-36.7h76.5v86.9l-2.1.4-17.7-14.6c-10.4,8.8-29.6,16.7-53.8,16.7-44.8,0-72.1-27.3-72.1-75s28.8-75,85.9-75,42.3,3.8,51.9,7.1l-3.5,37.5c-13.3-4.2-29.8-8.1-45.6-8.1-29,0-44.4,13.1-44.4,38.6s15,38.6,39.4,38.6,9.2-.6,13.5-1.5c3.1-.6,7.3-.4,9.8,1.7l.2-.2c-2.5-2.1-3.5-5.8-3.5-9.2v-7.1Z"/>
      <path class="st4" d="M405.2,402.3c0,49.2-28.8,75-87.5,75s-87.5-25.8-87.5-75,28.8-75,87.5-75,87.5,25.8,87.5,75ZM274.3,402.3c0,25.4,15.2,38.6,43.4,38.6s43.4-13.3,43.4-38.6-15.4-38.6-43.4-38.6-43.4,13.1-43.4,38.6Z"/>
      <path class="st4" d="M482.2,475.2h-61.3v-145.9h61.3c58.8,0,87.5,23.8,87.5,73s-28.8,73-87.5,73ZM482.2,366h-19.2v72.5h19.2c28.1,0,43.4-11,43.4-36.3s-15.4-36.3-43.4-36.3Z"/>
      <path class="st4" d="M693.5,332.6l-3.5,37.5c-12.5-4-27.7-6.5-43.4-6.5s-23.3,2.9-23.3,9.4c0,19.4,76.5,2.3,76.5,56.1s-20.8,48.1-67.5,48.1-40-3.1-54.2-6.5v-37.5c14,3.8,30,7.5,50,7.5s27.5-2.9,27.5-9.6c0-18.3-76.5,1-76.5-56.3s21.7-47.7,70.2-47.7,34.4,2.1,44.2,5.4Z"/>
    </g>
    <path class="st3" d="M349.8,285.4c0,0,.1,0,.2,0,0,0-.1,0-.2,0h0Z"/>
    <path class="st3" d="M347.8,280.4c1.7-.7,3.3-1.5,4.9-2.3-1.6.8-3.2,1.6-4.9,2.3Z"/>
    <path class="st3" d="M355.3,282.8c-1.7.9-3.5,1.8-5.3,2.5,1.8-.8,3.6-1.6,5.3-2.5Z"/>
    <path class="st3" d="M355.5,276.4c-.9.6-1.9,1.1-2.8,1.6,1-.5,1.9-1.1,2.8-1.6h0Z"/>
    <g>
      <path class="st0" d="M517.1,229.1c-4.6-36.2-39.9-57.7-69.9-55.1-9.7.8-24.7,5-40.7,19.8-.2.1-.3.3-.4.5l-.5.5c-12.2,13.5-18.7,21.7-27.7,33.1-5.6,7.2-12,15.3-21.7,27-9.5,11.5-21.3,17.3-36.3,17.8-12.7.4-32.7-10.1-35.9-30-2.6-16.5,8-32.1,19.8-39.1,13.5-7.9,29.6-4.5,40.9,3.9,1.2-1.2,2.5-2.4,3.9-3.8,1.2-1.2,2.5-2.4,3.8-3.7.4-.4.8-.8,1.2-1.2-6.4-4.7-25.1-16.4-46.7-9.6-16.5,5.2-25.3,18.1-28.4,23.4-2,3.4-7.9,13.8-6.8,27.2,2,24,24.4,42.8,43.3,44.6,2.6.2,11.9.7,22.6-3,1.1-.4,2.1-.8,3.2-1.2,1.7-.7,3.3-1.5,4.9-2.3.9-.5,1.9-1,2.8-1.6h0c1-.6,2-1.1,2.9-1.7,9.1-6,14.6-12.7,23-23,2.2-2.7,4.6-5.7,7.4-8.9.7-.8,2.4-2.9,4.7-5.8.7-.9,1.5-1.9,2.3-2.9,1.3-1.7,2.3-3.1,3.3-4.4,2.6-3.6,4.9-6.6,10.5-13.1,8.8-10.1,13.7-15.7,20.5-20.1,4.3-2.7,17.5-11,35.2-9.5,7.2.7,17.9,3.1,27.9,11.2,5.2,4.2,17.5,16.1,19,35.4.8,10.3-1.7,20.5-7.5,30.3-6.6,11.2-16,19.3-26.5,22.9-4.5,1.5-9.2,2.3-14,2.3-12,0-24.5-4.7-34.9-13.4-.8-.7-1.7-1.4-2.5-2.2l-4.2,4.1-3.8,3.7s0,0,0,0c8.9,8.5,26.1,18.5,45.4,18.5s9.8-.6,14.5-1.9c29.4-7.8,49.3-38.1,45.4-68.9Z"/>
      <path class="st2" d="M449.7,203.2c16.2-1.4,36,10.4,38.4,29.6,2.1,16.2-8.7,32.7-23.9,36.8-15.1,4-28.5-6.4-31.5-8.9l-3.8,3.7-5.3,5.2c.8.7,1.6,1.4,2.5,2.1,13.2,10.7,29.5,14.6,43.5,9.9,9.3-3.2,17.7-10.5,23.7-20.5,1.9-3.3,7.8-13.3,6.8-27.2-1.4-17.7-13.4-28.7-17-31.7-9-7.3-18.5-9.5-25-10.1-15.9-1.4-27.5,5.9-31.9,8.6-5.9,3.8-10.2,8.6-19.4,19.1-5.4,6.3-7.7,9.3-10.2,12.7-1,1.4-2.1,2.8-3.4,4.5-.8,1.1-1.6,2.1-2.3,3-2.3,2.9-4.1,5.1-4.8,5.9-2.7,3.2-5.1,6.2-7.3,8.9-8.3,10.2-14.3,17.6-24.2,24-2,1.3-4,2.5-6.1,3.6-1.7.9-3.5,1.8-5.3,2.5,0,0-.1,0-.2,0h0c-1.1.5-2.2.9-3.3,1.3-8.1,2.8-15.4,3.5-20.3,3.5s-3.5-.1-4.6-.2c-21-2-46-22.8-48.1-49.4-1.2-15.1,5.3-26.5,7.5-30.3,3.3-5.9,13.1-20.1,31.4-25.8,24.6-7.7,45.8,6.1,52.2,11,.2-.2.4-.4.7-.7,1.3-1.3,2.6-2.5,3.8-3.7,1.4-1.3,2.6-2.6,3.8-3.7-19.8-16.8-50.6-24-76.7-8.7-19.8,11.6-38.8,38.1-33.9,69,5.3,33.8,37.4,54.7,64,54.7s1.1,0,1.6,0c23.5-.7,43.1-10.3,58-28.5,9.8-11.9,16.3-20.1,22-27.4,8.5-10.8,14.7-18.6,26-31.1,9.7-8.9,17.8-11.3,22.9-11.7Z"/>
      <path class="st0" d="M359.3,200.9c-.9.9-1.9,1.8-2.8,2.7-1.3,1.3-2.6,2.5-3.8,3.7-1.4,1.3-2.6,2.6-3.8,3.7,1.2,1.2,2.4,2.5,3.5,3.8,2.4,3.1,5.9,5,9.8,5.5,3.9.5,7.7-.6,10.8-3.1,6.3-5,7.4-14.3,2.4-20.6-1.7-2.1-3.5-4.2-5.5-6.1-1.2,1.1-2.5,2.4-3.8,3.7-1.2,1.2-2.5,2.4-3.8,3.7-1,1-2,1.9-3,2.9Z"/>
      <path class="st2" d="M408.8,259.7c1.5-1.5,3-3,4.5-4.5.2-.2.4-.5.7-.7.2-.2.4-.5.7-.7l-7-1.3c-1.1-.3-2.4,0-3.2.8-.8.8-1,1.9-.8,2.8l1.3,7.2c.2-.2.5-.5.7-.7.2-.2.5-.5.7-.7.8-.8,1.6-1.6,2.4-2.4Z"/>
      <path class="st0" d="M429.2,258.1l.2-.2.7-.7-10.5-2c-.2.2-.4.5-.7.7-.2.2-.4.5-.7.7-2,2.1-4.1,4.2-6.2,6.2-1.4,1.4-2.8,2.7-4.1,4.1-.2.2-.5.5-.7.7-.2.2-.4.5-.7.7l1.9,10.2.7-.7.2-.2.5-.5,18.9-18.6.5-.5Z"/>
      <polygon class="st8" points="418.3 272 418.3 272.1 418.3 272.1 418.3 272"/>
    </g>
  </g>
  <g>
    <circle class="st4" cx="557.6" cy="884.1" r="50.8"/>
    <circle class="st6" cx="241.5" cy="884.1" r="50.8"/>
    <circle class="st9" cx="396.9" cy="884.1" r="50.8"/>
    <text class="st7" transform="translate(207.4 961) scale(1.1 1)"><tspan x="0" y="0">#620075</tspan></text>
    <text class="st1" transform="translate(363.4 961) scale(1.1 1)"><tspan x="0" y="0">#9600B4</tspan></text>
    <text class="st5" transform="translate(523.6 961) scale(1.1 1)"><tspan x="0" y="0">#2D0036</tspan></text>
  </g>
</svg>